<svg width="168" height="45" viewBox="0 0 168 45" fill="none" xmlns="http://www.w3.org/2000/svg">
<path fill-rule="evenodd" clip-rule="evenodd" d="M33.9161 13.1385C39.529 12.5168 44.6686 15.901 45.3956 20.6971C46.1224 25.4932 42.161 29.8842 36.5479 30.5047C30.9358 31.1251 25.7971 27.7414 25.0704 22.9461C24.3436 18.1507 28.3042 13.76 33.9161 13.1385ZM35.0782 16.782C31.2419 16.9871 30.3888 19.6471 30.5772 22.4891C30.7556 25.1812 32.2119 27.0045 35.5967 26.9119C36.8604 26.7549 38.0483 26.5561 38.8428 25.5867C40.5398 23.5157 40.5913 19.1234 38.0821 17.4734C37.1807 16.8807 36.1596 16.7864 35.0782 16.782Z" fill="white"/>
<path fill-rule="evenodd" clip-rule="evenodd" d="M137.32 13.14C142.937 12.52 148.077 15.9132 148.793 20.7143C149.509 25.5156 145.528 29.902 139.909 30.5053C134.302 31.1068 129.184 27.7164 128.47 22.9272C127.756 18.1378 131.715 13.7587 137.32 13.14ZM138.529 16.7817C134.739 16.9452 133.776 19.5451 133.961 22.3813C134.145 25.1976 135.483 26.9222 139.004 26.9135C140.272 26.7508 141.472 26.5471 142.263 25.5561C143.932 23.4612 143.973 19.12 141.477 17.4623C140.608 16.8862 139.574 16.7988 138.529 16.7817Z" fill="#4F8FFF"/>
<path d="M11.8633 7.03812C14.4228 6.77493 17.6695 7.3602 19.7787 8.62062C22.6686 10.3475 23.5137 12.2082 24.1868 15.0059C22.3674 15.0483 20.4287 15.0199 18.6006 15.0187C18.0148 11.6982 13.3836 10.1412 10.0166 11.5222C6.43302 12.992 6.13724 17.3252 6.34044 20.2901C6.50074 22.6289 7.50102 25.6491 10.4598 26.5249C14.0726 27.4547 17.1799 26.2883 18.4306 23.2354L18.6194 22.4754C20.3345 22.4192 22.4294 22.4719 24.1607 22.4845C23.5265 24.6202 23.032 25.8404 21.4548 27.5958C17.7524 31.7166 9.57737 31.9232 5.07593 28.6972C-0.633923 24.6052 -0.661267 14.8559 4.0397 10.1452C6.10638 8.07424 8.79102 7.26732 11.8633 7.03812Z" fill="white"/>
<path d="M111.227 9.03059L116.24 9.03809L116.237 13.525C119.801 13.5601 123.434 13.5293 127.004 13.5298C127.016 14.5544 127.004 15.596 127.002 16.6221L116.24 16.6308V16.6631L116.223 21.3361C116.219 22.8044 115.974 25.0222 117.215 26.141C118.139 26.9841 120.341 26.9774 121.247 26.1373C122.581 24.8996 122.232 22.3003 122.219 20.6951L122.231 19.2058L127.007 19.2105C127.008 20.7378 127.018 22.2742 127.007 23.7978C127.005 25.6123 126.447 27.5551 124.84 28.8274C120.99 31.8935 112.343 30.9448 111.469 25.8356C111.412 25.4995 111.28 25.0818 111.275 24.7451C111.202 19.5413 111.122 14.2301 111.227 9.03059Z" fill="white"/>
<path d="M56.5774 13.1329C57.0026 13.1078 57.4286 13.0966 57.8548 13.0991C59.5437 13.0989 61.2343 13.507 62.4565 14.5468C64.7213 16.4737 64.2283 19.7066 64.2288 22.2334L64.23 30.145C62.5065 30.1566 60.7828 30.1581 59.0592 30.1495L59.0615 22.9472C59.0618 21.4239 59.3237 18.7736 58.3115 17.5027C57.6528 16.6755 55.3446 16.6886 54.3511 16.9181C53.7389 17.0595 53.3164 17.2921 52.8223 17.6435C51.4124 19.0212 51.7267 21.5765 51.7287 23.3186L51.742 30.1483C50.047 30.174 48.279 30.1525 46.5781 30.153L46.5853 13.5288L51.478 13.5303C51.4867 14.3042 51.5164 15.1483 51.4504 15.9143C52.8173 14.2125 54.085 13.356 56.5774 13.1329Z" fill="white"/>
<path d="M156.998 13.1348C160.299 13.0129 164.436 13.0203 166.242 15.8696C166.799 16.7501 166.94 17.5813 167.11 18.5483L162.145 18.5525C161.769 16.5867 160.294 16.3269 158.19 16.3592C157.257 16.2953 155.237 16.783 155.385 17.8714C155.574 19.2608 159.749 19.8658 160.982 20.1748C163.758 20.8309 167.356 21.3652 167.59 24.4222C167.945 29.0769 164.237 30.2895 159.725 30.5614C156.506 30.6003 152.93 30.1825 150.904 27.779C150.068 26.7872 149.902 25.969 149.694 24.8087C151.436 24.7771 153.261 24.8009 155.009 24.8019C155.372 27.0892 157.55 27.2667 159.835 27.1961C160.538 27.1744 161.704 26.9436 162.149 26.4286C164.023 24.263 159.458 23.7293 157.942 23.3382C154.76 22.5841 150.766 21.8126 150.474 18.3744C150.176 14.8712 153.417 13.3855 156.998 13.1348Z" fill="#4F8FFF"/>
<path d="M84.0861 13.5263L89.186 13.5281L89.181 20.7513C89.1778 23.0496 88.5067 26.9092 92.3622 26.8826C97.0995 26.8498 96.5556 23.1416 96.5515 20.2945C96.5425 18.0398 96.5483 15.7851 96.5679 13.5304L101.633 13.53L101.629 19.2407L101.633 30.1451C100.042 30.1749 98.3636 30.1527 96.7656 30.1529C96.7599 29.4205 96.7656 28.688 96.7845 27.9558C94.9683 29.7494 93.5451 30.5305 90.674 30.5432C87.3165 30.6067 84.7899 28.6146 84.2362 25.8405C83.9507 24.4122 84.0746 22.6992 84.0746 21.223L84.0861 13.5263Z" fill="white"/>
<path d="M66.5112 13.53L82.2932 13.5285C82.3015 14.6885 82.3285 15.8808 82.2785 17.0378C81.6852 17.7333 80.7001 18.5891 80.0094 19.2491L75.7811 23.302C74.688 24.3369 73.4273 25.4519 72.4752 26.5706L82.5352 26.5746C82.5311 27.7089 82.5787 29.041 82.5114 30.1543L65.8265 30.149C65.8211 29.1241 65.7749 27.7579 65.8698 26.7694C66.5017 25.9673 68.6442 23.9707 69.4619 23.1761C71.5805 21.1174 73.6787 19.0434 75.7564 16.9545L66.4997 16.9499C66.4919 15.81 66.4958 14.67 66.5112 13.53Z" fill="white"/>
<path d="M104.302 7.39479C105.879 7.3847 107.456 7.388 109.032 7.40461C108.922 14.8361 109.088 22.377 109.025 29.819C109.024 29.9374 109.006 30.0212 108.927 30.1213L108.712 30.1517L103.914 30.1513L103.915 14.9507L103.922 10.0179C103.922 9.53769 103.799 7.71414 104.034 7.42697L104.302 7.39479Z" fill="white"/>
<path d="M140.632 33.6745C141.928 33.4957 143.147 34.249 143.353 35.3559C143.56 36.4627 142.677 37.5031 141.381 37.6782C140.089 37.8528 138.875 37.1 138.668 35.9957C138.461 34.8914 139.34 33.8528 140.632 33.6745Z" fill="#4F8FFF"/>
<path d="M155.828 33.6742C156.671 33.5594 157.521 33.8404 158.054 34.41C158.587 34.9797 158.72 35.7499 158.404 36.4272C158.088 37.1044 157.369 37.5841 156.524 37.6832C155.236 37.8343 154.046 37.0715 153.855 35.9728C153.665 34.8741 154.545 33.849 155.828 33.6742Z" fill="#4F8FFF"/>
<path d="M148.209 33.6829C149.05 33.5615 149.901 33.836 150.439 34.4014C150.976 34.9668 151.115 35.7356 150.804 36.4134C150.493 37.0914 149.778 37.5735 148.934 37.6753C147.654 37.8298 146.465 37.0765 146.266 35.9845C146.069 34.8925 146.934 33.867 148.209 33.6829Z" fill="#4F8FFF"/>
</svg>
